<svg width="28" height="28" viewBox="0 0 28 28" fill="none" xmlns="http://www.w3.org/2000/svg">
<path fill-rule="evenodd" clip-rule="evenodd" d="M10.5217 5.42857C10.5217 5.04969 10.6683 4.68633 10.9292 4.41842C11.1902 4.15051 11.544 4 11.913 4H16.087C16.456 4 16.8098 4.15051 17.0708 4.41842C17.3317 4.68633 17.4783 5.04969 17.4783 5.42857V6.14286C17.4783 6.52174 17.3317 6.8851 17.0708 7.15301C16.8098 7.42092 16.456 7.57143 16.087 7.57143H11.913C11.544 7.57143 11.1902 7.42092 10.9292 7.15301C10.6683 6.8851 10.5217 6.52174 10.5217 6.14286V5.42857ZM19.2174 5.42857H19.913C20.4665 5.42857 20.9974 5.65434 21.3887 6.0562C21.7801 6.45806 22 7.00311 22 7.57143V21.8571C22 22.4255 21.7801 22.9705 21.3887 23.3724C20.9974 23.7742 20.4665 24 19.913 24H8.08696C7.53346 24 7.00264 23.7742 6.61126 23.3724C6.21988 22.9705 6 22.4255 6 21.8571V7.57143C6 7.00311 6.21988 6.45806 6.61126 6.0562C7.00264 5.65434 7.53346 5.42857 8.08696 5.42857H8.78261V6.14286C8.78261 6.99534 9.11242 7.81291 9.69949 8.4157C10.2866 9.0185 11.0828 9.35714 11.913 9.35714H16.087C16.9172 9.35714 17.7134 9.0185 18.3005 8.4157C18.8876 7.81291 19.2174 6.99534 19.2174 6.14286V5.42857ZM12.567 12.4971C12.567 12.1871 12.8118 11.9371 13.1137 11.9371H14.8877C15.1882 11.9371 15.433 12.1871 15.433 12.4971V14.7257H17.6035C17.9054 14.7257 18.1489 14.9771 18.1489 15.2871V17.1086C18.1492 17.1822 18.1354 17.2552 18.1081 17.3233C18.0808 17.3914 18.0407 17.4533 17.99 17.5054C17.9392 17.5575 17.879 17.5987 17.8126 17.6267C17.7463 17.6547 17.6752 17.669 17.6035 17.6686H15.433V19.8971C15.4336 19.9709 15.4199 20.0441 15.3927 20.1123C15.3655 20.1806 15.3254 20.2427 15.2746 20.2949C15.2239 20.3471 15.1636 20.3885 15.0971 20.4166C15.0307 20.4447 14.9595 20.459 14.8877 20.4586H13.1123C13.0405 20.459 12.9693 20.4447 12.9029 20.4166C12.8364 20.3885 12.7761 20.3471 12.7254 20.2949C12.6746 20.2427 12.6345 20.1806 12.6073 20.1123C12.5801 20.0441 12.5664 19.9709 12.567 19.8971V17.6686H10.3965C10.3248 17.669 10.2537 17.6547 10.1874 17.6267C10.121 17.5987 10.0608 17.5575 10.01 17.5054C9.95933 17.4533 9.91917 17.3914 9.89189 17.3233C9.86462 17.2552 9.85076 17.1822 9.85113 17.1086V15.2857C9.85113 14.9757 10.0946 14.7243 10.3965 14.7243H12.567V12.4971Z" fill="black"/>
</svg>
