<svg width="29" height="28" viewBox="0 0 29 28" fill="none" xmlns="http://www.w3.org/2000/svg">
<path d="M18.7475 7.16557C19.489 7.16557 20.2001 6.87102 20.7244 6.34673C21.2487 5.82244 21.5432 5.11135 21.5432 4.36989C21.5432 3.62843 21.2487 2.91734 20.7244 2.39305C20.2001 1.86876 19.489 1.57422 18.7475 1.57422C18.0061 1.57422 17.295 1.86876 16.7707 2.39305C16.2464 2.91734 15.9519 3.62843 15.9519 4.36989C15.9519 5.11135 16.2464 5.82244 16.7707 6.34673C17.295 6.87102 18.0061 7.16557 18.7475 7.16557ZM13.1313 9.82581C12.3566 10.0184 11.8279 10.3079 11.4011 10.667C10.7612 11.2062 10.2443 11.9841 9.54603 13.2067C9.3825 13.4928 9.112 13.7023 8.79405 13.789C8.47609 13.8756 8.13673 13.8325 7.85061 13.6689C7.56449 13.5054 7.35505 13.2349 7.26837 12.9169C7.18168 12.599 7.22486 12.2596 7.38839 11.9735C8.08358 10.7577 8.78623 9.62017 9.80075 8.76656C10.8594 7.87443 12.1553 7.36996 13.9029 7.17551C14.6335 7.09474 15.4374 7.1109 16.191 7.447C16.9819 7.8005 17.5597 8.43356 17.9536 9.27972C18.4841 10.4185 18.8786 11.0963 19.1942 11.4895C19.3464 11.6778 19.4527 11.7654 19.5129 11.8045C19.5608 11.8356 19.5813 11.8381 19.5887 11.8393C19.6428 11.8455 19.8186 11.8393 20.333 11.6113C20.5573 11.5119 20.802 11.3926 21.1015 11.2466L21.1729 11.2118C21.5392 11.0312 21.9087 10.8572 22.2813 10.69C22.5821 10.5579 22.923 10.5504 23.2293 10.669C23.5357 10.7876 23.7826 11.0227 23.9161 11.3229C24.0496 11.6231 24.0587 11.964 23.9415 12.2709C23.8243 12.5778 23.5904 12.8258 23.2908 12.9607C22.9455 13.1156 22.6031 13.277 22.2639 13.4447L22.1825 13.4844C21.8961 13.6242 21.6078 13.7652 21.3376 13.8845C20.7784 14.1318 20.064 14.4002 19.2893 14.3063C18.4717 14.2069 17.8417 13.7453 17.323 13.1259L15.6251 16.4019L17.9734 19.4572C18.1135 19.6396 18.2001 19.8572 18.2238 20.0859L18.7407 25.0535C18.7604 25.2172 18.7473 25.3832 18.7022 25.5417C18.6572 25.7003 18.581 25.8483 18.4781 25.9771C18.3753 26.106 18.2478 26.213 18.1032 26.2921C17.9586 26.3712 17.7996 26.4207 17.6357 26.4378C17.4717 26.4549 17.306 26.4391 17.1482 26.3915C16.9904 26.3439 16.8436 26.2654 16.7164 26.1605C16.5893 26.0556 16.4842 25.9264 16.4075 25.7805C16.3307 25.6347 16.2837 25.475 16.2693 25.3107L15.7885 20.6929L14.362 18.8366L14.3496 18.8596L14.2974 18.7527L11.662 15.3233C11.5325 15.1548 11.4484 14.9558 11.4177 14.7454C11.387 14.5351 11.4108 14.3204 11.4868 14.1218L13.1313 9.82581Z" fill="black"/>
<path d="M11.2502 17.1104L10.3357 19.5705L6.73241 19.2848C6.56859 19.2696 6.40337 19.287 6.24635 19.3362C6.08934 19.3853 5.94364 19.4652 5.81773 19.5711C5.69182 19.677 5.58819 19.8068 5.51286 19.9531C5.43754 20.0994 5.39201 20.2592 5.37893 20.4232C5.36585 20.5872 5.38547 20.7522 5.43666 20.9085C5.48785 21.0649 5.56958 21.2095 5.67711 21.3341C5.78465 21.4586 5.91584 21.5605 6.06309 21.6339C6.21033 21.7073 6.37069 21.7508 6.53485 21.7617L11.075 22.1221C11.3445 22.1435 11.6136 22.0765 11.8415 21.9312C12.0694 21.7859 12.2438 21.5702 12.338 21.3169L13.037 19.4357L11.2502 17.1104Z" fill="black"/>
</svg>
