<svg width="28" height="28" viewBox="0 0 28 28" fill="none" xmlns="http://www.w3.org/2000/svg">
<path d="M20 24C19.1667 24 18.4583 23.7083 17.875 23.125C17.2917 22.5417 17 21.8333 17 21C17 20.9 17.025 20.6667 17.075 20.3L10.05 16.2C9.78333 16.45 9.475 16.646 9.125 16.788C8.775 16.93 8.4 17.0007 8 17C7.16667 17 6.45833 16.7083 5.875 16.125C5.29167 15.5417 5 14.8333 5 14C5 13.1667 5.29167 12.4583 5.875 11.875C6.45833 11.2917 7.16667 11 8 11C8.4 11 8.775 11.071 9.125 11.213C9.475 11.355 9.78333 11.5507 10.05 11.8L17.075 7.7C17.0417 7.58333 17.021 7.471 17.013 7.363C17.005 7.255 17.0007 7.134 17 7C17 6.16667 17.2917 5.45833 17.875 4.875C18.4583 4.29167 19.1667 4 20 4C20.8333 4 21.5417 4.29167 22.125 4.875C22.7083 5.45833 23 6.16667 23 7C23 7.83333 22.7083 8.54167 22.125 9.125C21.5417 9.70833 20.8333 10 20 10C19.6 10 19.225 9.929 18.875 9.787C18.525 9.645 18.2167 9.44933 17.95 9.2L10.925 13.3C10.9583 13.4167 10.9793 13.5293 10.988 13.638C10.9967 13.7467 11.0007 13.8673 11 14C10.9993 14.1327 10.9953 14.2537 10.988 14.363C10.9807 14.4723 10.9597 14.5847 10.925 14.7L17.95 18.8C18.2167 18.55 18.525 18.3543 18.875 18.213C19.225 18.0717 19.6 18.0007 20 18C20.8333 18 21.5417 18.2917 22.125 18.875C22.7083 19.4583 23 20.1667 23 21C23 21.8333 22.7083 22.5417 22.125 23.125C21.5417 23.7083 20.8333 24 20 24Z" fill="black"/>
</svg>
