<svg width="29" height="28" viewBox="0 0 29 28" fill="none" xmlns="http://www.w3.org/2000/svg">
<path d="M18.2497 8.08333C18.2497 8.61956 18.1441 9.15054 17.9388 9.64596C17.7336 10.1414 17.4329 10.5915 17.0537 10.9707C16.6745 11.3499 16.2244 11.6506 15.729 11.8558C15.2336 12.061 14.7026 12.1667 14.1663 12.1667C13.6301 12.1667 13.0991 12.061 12.6037 11.8558C12.1083 11.6506 11.6582 11.3499 11.279 10.9707C10.8998 10.5915 10.599 10.1414 10.3938 9.64596C10.1886 9.15054 10.083 8.61956 10.083 8.08333C10.083 7.00037 10.5132 5.96175 11.279 5.19598C12.0448 4.43021 13.0834 4 14.1663 4C15.2493 4 16.2879 4.43021 17.0537 5.19598C17.8195 5.96175 18.2497 7.00037 18.2497 8.08333Z" fill="black"/>
<path opacity="0.4" d="M22.917 8.08366C22.917 8.85721 22.6097 9.59907 22.0627 10.1461C21.5157 10.693 20.7739 11.0003 20.0003 11.0003C19.2268 11.0003 18.4849 10.693 17.9379 10.1461C17.3909 9.59907 17.0837 8.85721 17.0837 8.08366C17.0837 7.31011 17.3909 6.56825 17.9379 6.02126C18.4849 5.47428 19.2268 5.16699 20.0003 5.16699C20.7739 5.16699 21.5157 5.47428 22.0627 6.02126C22.6097 6.56825 22.917 7.31011 22.917 8.08366ZM5.41699 8.08366C5.41699 8.85721 5.72428 9.59907 6.27126 10.1461C6.81825 10.693 7.56011 11.0003 8.33366 11.0003C9.10721 11.0003 9.84907 10.693 10.3961 10.1461C10.943 9.59907 11.2503 8.85721 11.2503 8.08366C11.2503 7.31011 10.943 6.56825 10.3961 6.02126C9.84907 5.47428 9.10721 5.16699 8.33366 5.16699C7.56011 5.16699 6.81825 5.47428 6.27126 6.02126C5.72428 6.56825 5.41699 7.31011 5.41699 8.08366Z" fill="black"/>
<path d="M21.167 18.5833C21.167 20.8385 18.0333 22.6667 14.167 22.6667C10.3007 22.6667 7.16699 20.8385 7.16699 18.5833C7.16699 16.3282 10.3007 14.5 14.167 14.5C18.0333 14.5 21.167 16.3282 21.167 18.5833Z" fill="black"/>
<path opacity="0.4" d="M25.8333 18.5837C25.8333 20.1937 23.745 21.5003 21.1667 21.5003C18.5883 21.5003 16.5 20.1937 16.5 18.5837C16.5 16.9737 18.5883 15.667 21.1667 15.667C23.745 15.667 25.8333 16.9737 25.8333 18.5837ZM2.5 18.5837C2.5 20.1937 4.58833 21.5003 7.16667 21.5003C9.745 21.5003 11.8333 20.1937 11.8333 18.5837C11.8333 16.9737 9.745 15.667 7.16667 15.667C4.58833 15.667 2.5 16.9737 2.5 18.5837Z" fill="black"/>
</svg>
