<svg width="24" height="24" viewBox="0 0 24 24" fill="none" xmlns="http://www.w3.org/2000/svg">
<path fill-rule="evenodd" clip-rule="evenodd" d="M14.496 4.089L13.584 12.341C13.354 13.833 9.59895 15.774 7.42795 16.567C7.23595 16.637 7.05795 16.691 6.89195 16.737C6.48795 16.85 6.06595 17.043 5.63795 17.238C4.93495 17.558 4.21395 17.888 3.52795 17.888H2.35395C2.30774 17.8877 2.26193 17.8966 2.21917 17.9142C2.17641 17.9317 2.13754 17.9575 2.10482 17.9902C2.07209 18.0228 2.04615 18.0616 2.0285 18.1043C2.01084 18.147 2.00182 18.1928 2.00195 18.239C2.00182 18.4701 2.04722 18.699 2.13554 18.9126C2.22387 19.1262 2.3534 19.3203 2.51674 19.4838C2.68008 19.6473 2.87403 19.7771 3.08751 19.8656C3.30099 19.9542 3.52983 19.9999 3.76095 20H4.82395C5.10923 20 5.39121 19.939 5.65095 19.821L5.98895 19.668C6.01487 19.6563 6.043 19.6502 6.07145 19.6502C6.09991 19.6502 6.12803 19.6563 6.15395 19.668L6.49095 19.821C6.7507 19.939 7.03268 20 7.31795 20H9.45095C9.90586 20.0002 10.3548 19.8969 10.764 19.698L11.692 19.246C12.1011 19.0471 12.5501 18.9438 13.005 18.944H14.269C14.591 18.944 14.912 18.996 15.217 19.097L17.619 19.897C17.823 19.965 18.039 20.001 18.253 19.997C22.376 19.9 22.976 17.934 20.653 13.879C20.4696 13.5632 20.3717 13.2051 20.369 12.84V4.1C20.369 4.07348 20.3584 4.04804 20.3397 4.02929C20.3209 4.01054 20.2955 4 20.269 4H14.596C14.5714 4.0001 14.5477 4.00922 14.5295 4.02563C14.5112 4.04204 14.4997 4.0646 14.497 4.089M18.714 14.022C18.7114 13.8231 18.63 13.6333 18.4876 13.4945C18.3451 13.3556 18.1534 13.279 17.9545 13.2815C17.7555 13.284 17.5658 13.3655 17.4269 13.5079C17.288 13.6503 17.2114 13.8421 17.214 14.041C17.221 14.547 17.219 14.88 17.11 15.149C17.031 15.345 16.865 15.581 16.306 15.753C16.1166 15.812 15.9583 15.9436 15.8658 16.1191C15.7732 16.2945 15.7539 16.4994 15.8121 16.689C15.8703 16.8786 16.0012 17.0375 16.1762 17.1308C16.3512 17.2241 16.5561 17.2443 16.746 17.187C17.669 16.903 18.228 16.387 18.501 15.71C18.731 15.14 18.721 14.521 18.715 14.094L18.714 14.022Z" fill="#555555"/>
</svg>
