<svg width="24" height="24" viewBox="0 0 24 24" fill="none" xmlns="http://www.w3.org/2000/svg">
<path d="M19.4353 0.949707C18.6759 0.949707 17.8743 0.950645 17.0728 0.952988C14.0024 0.958613 11.2087 0.969863 10.9556 0.969863C10.079 2.80924 9.40401 4.83752 8.83214 6.94689C10.6509 7.47189 12.4462 8.25939 13.9696 9.18752C14.879 9.74064 15.6946 10.336 16.3556 10.9641C17.0868 9.98908 17.9634 8.75158 18.8399 7.46721C19.8618 5.97189 20.8884 4.40955 21.6946 3.11439C22.2431 2.23268 22.679 1.47002 22.9462 0.957207C22.5853 0.955332 22.0978 0.950645 21.5071 0.950645V0.952988C20.8978 0.950645 20.1899 0.949707 19.4353 0.949707ZM7.42589 7.46252C7.21964 7.81408 7.01339 8.17502 6.81182 8.54533C9.91495 8.65314 12.9853 10.3688 14.7993 11.9625L15.0946 12.225L14.8603 12.5344C14.4759 13.0406 14.129 14.2781 14.6962 15.6516L14.9634 16.2938L14.2696 16.2328C11.2931 15.9563 8.29776 16.4531 5.46651 17.7235C5.54151 17.986 5.62589 18.2485 5.72432 18.5203C8.83682 17.1469 12.5259 16.6594 16.6649 17.3203C17.3681 16.1766 17.6446 15.0516 17.1478 13.5281C16.7728 12.3985 15.3946 11.0438 13.529 9.90939C11.7478 8.82189 9.53995 7.93127 7.42589 7.46252ZM6.5212 9.38439H6.38526C5.35401 11.5172 4.65417 13.9547 5.26495 16.8891C7.97432 15.7031 10.8478 15.1875 13.7071 15.3516C13.3837 14.1703 13.5712 13.1016 13.9649 12.375C12.1931 10.9172 9.26807 9.39377 6.5212 9.38439ZM12.9431 17.8688C10.9978 17.8828 9.19307 18.1828 7.54307 18.7219C8.03057 20.2219 8.68214 21.7078 9.47432 23.1516H15.9524C15.8821 21.4219 15.6431 19.6735 15.2259 17.9813C14.4431 17.8969 13.6837 17.8641 12.9431 17.8688Z" fill="#555555"/>
</svg>
