<svg width="24" height="24" viewBox="0 0 24 24" fill="none" xmlns="http://www.w3.org/2000/svg">
<g clip-path="url(#clip0_137_1290)">
<path fill-rule="evenodd" clip-rule="evenodd" d="M14.9595 14.2224C14.2953 14.3459 14.0446 14.5516 13.6436 14.7162C13.418 15.5392 13.5684 16.0331 14.2076 15.9508C14.9094 15.7038 14.972 15.21 14.9595 14.2224ZM8.04165 14.2224C8.02914 15.21 8.0918 15.7038 8.79361 15.9508C9.43278 16.0331 9.58321 15.5392 9.35761 14.7162C8.95656 14.5516 8.70594 14.3459 8.04165 14.2224ZM18.7298 12.0749C18.8479 12.0856 18.9589 12.1271 19.0576 12.206C19.584 12.4392 18.8696 13.3719 19.8096 13.1936C20.0477 13.0153 20.6242 13.0839 21.0127 13.4817C21.2759 13.9618 22.0278 14.4007 21.7647 14.922C21.3135 16.3211 21.0504 16.6092 20.8624 17.8026C20.8749 19.38 20.6995 20.4637 20.7496 22L19.321 21.9177C19.4213 20.2442 19.4463 18.8176 19.2082 17.1441C18.9074 16.8698 18.757 16.472 19.2458 15.7038C19.0578 15.21 19.2082 14.922 18.4187 14.7162C17.9425 14.3733 17.2782 15.0591 16.99 14.1813C16.7268 13.4371 17.9029 11.9998 18.73 12.0749H18.7298ZM4.27138 12.0749C5.09851 11.9999 6.27461 13.4371 6.01137 14.1813C5.72311 15.0591 5.05894 14.3733 4.58272 14.7162C3.79312 14.922 3.94356 15.21 3.7556 15.7038C4.24432 16.472 4.094 16.8698 3.79323 17.1441C3.55513 18.8176 3.58014 20.2442 3.68043 21.9177L2.25179 22C2.30193 20.4637 2.12648 19.38 2.13899 17.8026C1.95102 16.6092 1.68779 16.3211 1.2367 14.922C0.973463 14.4007 1.72542 13.9618 1.98866 13.4817C2.37721 13.0839 2.95372 13.0153 3.19182 13.1936C4.13175 13.3719 3.41742 12.4392 3.94379 12.206C4.04249 12.1271 4.15347 12.0855 4.27161 12.0749H4.27138ZM15.5598 8.05245C14.652 7.99689 14.304 9.91706 13.4932 10.3543C12.2776 10.807 12.0018 11.9592 12.0269 13.7699C12.0896 14.2774 12.9419 13.7973 13.5684 13.4406C14.3705 12.9331 16.8269 8.76311 15.749 8.09097C15.6832 8.06868 15.6202 8.05622 15.5597 8.05245H15.5598ZM7.44138 8.05245C7.38089 8.0561 7.31789 8.06868 7.25205 8.09097C6.17431 8.76311 8.63067 12.9331 9.43266 13.4406C10.0593 13.7973 10.9115 14.2774 10.9741 13.7699C10.9991 11.9592 10.7235 10.807 9.50782 10.3543C8.69707 9.91706 8.34901 7.99701 7.44127 8.05245H7.44138ZM4.84584 2.00057C9.37331 1.98686 8.39665 5.4566 11.4442 5.82399C14.4923 5.4566 13.628 1.98686 18.1553 2.00057C21.0629 1.94571 21.9402 5.84136 21.1255 7.556C20.9626 8.09097 20.5742 7.67946 20.2232 7.76176C20.0078 8.09863 19.8357 8.61016 19.7507 8.9907L18.757 9.94278C19.2082 10.6012 19.1329 11.3831 18.569 11.63C17.5664 11.9592 16.9774 12.4119 16.8771 13.1114C16.7768 14.0716 16.7894 16.9659 15.7868 17.1854C14.9471 17.2128 14.2578 17.158 13.2677 17.2677C12.6912 17.2128 12.19 16.1703 11.8766 15.3336L11.5007 15.9509L11.1248 15.3336C10.8115 16.1703 10.3102 17.2128 9.73365 17.2677C8.74358 17.158 8.05427 17.2128 7.21464 17.1854C6.21206 16.9659 6.22457 14.0716 6.12428 13.1114C6.02399 12.4119 5.43497 11.9592 4.4324 11.63C3.8684 11.3831 3.79323 10.6012 4.24443 9.94278C3.92184 9.52349 3.90353 9.40998 3.27676 9.07803C3.11052 8.77031 2.94439 8.37526 2.77815 8.06742C2.42724 7.98512 2.03869 8.09086 1.87586 7.55589C1.06102 5.84136 1.93829 1.94571 4.84584 2.00057Z" fill="#555555"/>
</g>
<defs>
<clipPath id="clip0_137_1290">
<rect width="20.6383" height="20" fill="white" transform="translate(1.18164 2)"/>
</clipPath>
</defs>
</svg>
