<svg width="24" height="24" viewBox="0 0 24 24" fill="none" xmlns="http://www.w3.org/2000/svg">
<path d="M17.9414 3.14141C19.8513 2.77761 20.4172 3.13913 20.8719 3.95766C21.2559 4.59769 22.0031 5.94671 22.3577 6.92052C22.2675 6.88254 22.1634 6.85999 22.0514 6.86962C21.8633 6.88583 21.6998 6.98881 21.583 7.15752C21.5375 7.22307 21.5129 7.29597 21.4979 7.355C21.4866 7.39955 21.4781 7.44704 21.4717 7.49566C21.4408 7.43759 21.4109 7.38377 21.3821 7.33514C21.3439 7.27037 21.3052 7.21027 21.2669 7.1595C21.2329 7.1144 21.1828 7.05406 21.1182 7.01064C21.0206 6.94504 20.8039 6.81448 20.5324 6.84391C20.2363 6.87602 19.983 7.08199 19.788 7.45792C19.7483 7.53447 19.7235 7.62717 19.7071 7.72041C19.6758 7.64972 19.644 7.58369 19.6118 7.52365C19.5431 7.39584 19.4501 7.25124 19.3255 7.16685C18.8789 6.86424 18.4306 6.73871 18.0079 6.81227C17.5845 6.88601 17.2416 7.15011 16.9881 7.51647C16.9145 7.62293 16.88 7.76801 16.8592 7.88696C16.836 8.01991 16.8211 8.17875 16.8126 8.35009C16.7996 8.61126 16.8009 8.91531 16.8145 9.22648C16.7147 8.96842 16.6049 8.72328 16.4931 8.51163C16.41 8.3541 16.323 8.21009 16.2352 8.09138C16.1514 7.97811 16.0503 7.86484 15.9332 7.79427C15.4626 7.51073 15.0579 7.39106 14.6753 7.50864C14.3144 7.61958 14.0539 7.92327 13.8148 8.2306C13.7352 8.33287 13.6926 8.4721 13.6653 8.58913C13.6354 8.71795 13.6135 8.87064 13.598 9.03438C13.5766 9.26045 13.5666 9.5191 13.5675 9.78565C13.4829 9.56988 13.3904 9.36522 13.295 9.18647C13.2156 9.03761 13.131 8.90066 13.0434 8.78834C12.9603 8.68201 12.8548 8.57167 12.727 8.50918C12.2759 8.28867 11.9227 8.19125 11.5988 8.32994C11.4477 8.39465 11.3313 8.49991 11.2341 8.5999C11.1867 8.64864 11.1383 8.70217 11.0907 8.75479L11.085 8.76119C11.0343 8.81717 10.9824 8.87446 10.9246 8.93469C10.8413 9.02152 10.7909 9.13838 10.7575 9.23575C10.7212 9.34148 10.6918 9.46492 10.6677 9.59547C10.6194 9.8573 10.5878 10.1743 10.5718 10.4927L10.5693 10.5461C10.475 10.2961 10.3665 10.0562 10.2516 9.84851C10.1653 9.69272 10.0719 9.54883 9.97392 9.43113C9.87991 9.31834 9.76251 9.20608 9.62233 9.14538L9.58878 9.13073C9.23963 8.97793 8.2824 8.55893 6.92895 9.14538C6.77268 9.21314 6.6441 9.33191 6.54045 9.46145C6.4352 9.59308 6.34298 9.75174 6.26374 9.92237C6.10525 10.2636 5.98582 10.6804 5.92028 11.096L5.91896 11.1042C5.83769 10.8617 5.73434 10.6284 5.61647 10.4262C5.45888 10.1561 5.24663 9.89193 4.98499 9.77728C4.3785 9.51169 3.90389 9.42449 3.53119 9.42778C3.15454 9.43107 2.90101 9.5267 2.74421 9.59541C2.52061 9.69331 2.32554 9.92404 2.17239 10.1568C2.00968 10.4042 1.85802 10.7107 1.73826 11.0295C1.64026 11.2904 1.56088 11.5669 1.5152 11.8336C1.16009 11.8346 0.87436 11.8178 0.681406 11.7792C-0.682813 11.5064 0.317618 8.95981 0.954254 7.41373C1.13835 6.96662 1.79408 6.3989 2.99018 6.11578C4.18629 5.8326 16.3247 3.44935 17.9414 3.14141Z" fill="#555555"/>
<path d="M17.5059 11.2335C17.8826 11.5065 19.337 11.9581 19.8705 11.5064C20.404 11.0546 19.6376 7.74015 19.1568 7.41433C18.3514 6.86867 17.674 7.04928 17.233 7.68656C16.9665 8.07171 17.1291 10.9605 17.5059 11.2335Z" fill="#555555"/>
<path d="M20.5998 11.3975C21.1081 11.826 22.2866 11.7539 22.4701 11.3696C22.4925 11.3226 22.492 11.229 22.4731 11.1006C22.9124 11.4815 23.7003 11.246 23.9198 10.9292C23.4161 9.17193 22.4323 7.31689 22.3267 7.24363C22.1771 7.14005 21.9742 7.11631 21.8278 7.32778C21.6974 7.51593 21.7456 8.34428 21.8808 9.18084C21.5281 8.25799 21.1206 7.37323 20.9503 7.25876C20.7801 7.14436 20.3887 6.9473 20.0524 7.59565C19.8116 8.05985 20.0916 10.9691 20.5998 11.3975Z" fill="#555555"/>
<path d="M16.871 11.5976C16.1505 12.7799 14.6516 12.049 14.2335 11.7795C13.8154 11.51 13.7558 8.7946 14.0516 8.41442C14.5409 7.78545 14.8858 7.51208 15.7796 8.05063C16.3132 8.37214 17.2567 10.9647 16.871 11.5976Z" fill="#555555"/>
<path d="M10.9578 12.0522C11.1397 12.5978 12.8751 13.0106 13.5953 12.0522C13.9807 11.5391 13.1282 9.03872 12.5949 8.77803C11.8163 8.39755 11.661 8.56937 11.3101 8.95733C11.2584 9.0145 11.2025 9.0764 11.1396 9.14188C10.8441 9.45006 10.7758 11.5065 10.9578 12.0522Z" fill="#555555"/>
<path d="M6.59327 12.9614C7.4416 13.4209 9.81407 12.8968 10.4131 12.6192C11.0121 12.3416 10.1203 9.68687 9.50362 9.41972L9.46923 9.40471C9.1406 9.26064 8.28288 8.88465 7.04803 9.41972C6.28342 9.75104 5.74493 12.5021 6.59327 12.9614Z" fill="#555555"/>
<path d="M1.86361 12.7795C2.23098 13.5287 4.71451 13.3958 5.47757 12.9782C6.24056 12.5605 5.55262 10.3523 4.86492 10.0511C3.71308 9.5466 3.1338 9.75102 2.86404 9.86919C2.30941 10.1121 1.49623 12.0304 1.86361 12.7795Z" fill="#555555"/>
<path d="M22.1686 13.3994C22.5324 12.9446 23.3509 13.0356 23.6237 13.3084C23.4887 14.659 23.1098 15.9321 22.8863 16.5354C22.8863 16.5353 22.8863 16.5354 22.8863 16.5354C22.8089 16.7445 22.7502 16.8733 22.7268 16.8967C22.6624 16.961 22.4836 17.0065 22.2981 17.0131C22.2218 17.0158 22.1445 17.012 22.0735 17.0002C21.9717 16.9834 21.8831 16.9502 21.8296 16.8967C21.5017 16.5687 21.8048 13.8541 22.1686 13.3994Z" fill="#555555"/>
<path d="M19.866 13.6221C20.2524 13.1707 21.4121 12.9855 21.6849 13.2584C21.8919 13.4653 21.6849 15.2996 21.4504 16.2885C21.4503 16.2885 21.4504 16.2885 21.4504 16.2885C21.4351 16.353 21.4198 16.4138 21.4043 16.4705C21.3444 16.6905 21.2843 16.8458 21.2304 16.8963C21.1436 16.9773 20.8868 17.1387 20.5863 17.1295C20.4135 17.1241 20.2261 17.0624 20.0484 16.8963C19.7002 16.5707 19.4796 14.0736 19.866 13.6221Z" fill="#555555"/>
<path d="M19.1433 13.9234C18.7666 13.6504 17.4119 13.5996 16.8783 14.0514C16.3449 14.5031 16.5707 16.8718 17.0515 17.1976C17.3033 17.3682 17.5835 17.4446 17.8556 17.4652C17.9381 17.4714 18.0199 17.4725 18.0999 17.4695C18.6004 17.451 19.0317 17.2734 19.1435 17.1976C19.2722 17.1105 19.357 16.7505 19.399 16.2986C19.4837 15.3888 19.3951 14.1059 19.1433 13.9234Z" fill="#555555"/>
<path d="M13.5674 13.996C14.1443 13.5366 15.6092 13.5883 16.0166 13.866C16.2904 14.0526 16.3856 15.3723 16.2912 16.2984C16.2451 16.75 16.1542 17.1079 16.0168 17.1955C15.8892 17.2767 15.3777 17.4732 14.7994 17.4737C14.7175 17.4737 14.6344 17.4698 14.5509 17.4612C14.28 17.4331 14.0044 17.3546 13.7547 17.1955C13.2348 16.8642 12.9906 14.4554 13.5674 13.996Z" fill="#555555"/>
<path d="M12.5036 13.9538C11.9046 13.6762 9.75029 13.6245 8.90195 14.0839C8.05362 14.5433 8.41275 16.9521 9.17735 17.2834C9.57757 17.4568 10.0232 17.5345 10.4559 17.5555C10.6112 17.5629 10.7648 17.5632 10.914 17.5579C11.68 17.5306 12.3312 17.3582 12.5038 17.2834C12.7188 17.1902 12.8567 16.791 12.9197 16.2987C13.0374 15.379 12.8938 14.1347 12.5036 13.9538Z" fill="#555555"/>
<path d="M4.17344 14.2655C5.02178 13.8062 7.17607 13.8578 7.77508 14.1355C8.13833 14.3039 8.28779 15.394 8.21165 16.2857C8.16226 16.8646 8.01795 17.3599 7.7752 17.465C7.58777 17.5462 6.83548 17.7428 5.985 17.7432C5.82813 17.7432 5.66785 17.7367 5.50721 17.7215C5.14539 17.6872 4.78142 17.6092 4.44884 17.465C3.68424 17.1337 3.3251 14.7249 4.17344 14.2655Z" fill="#555555"/>
<path d="M1.19566 16.2985C1.66352 16.2049 2.47682 16.1755 3.44074 16.1773C3.49203 16.475 3.57673 16.7652 3.69073 17.0144C3.82823 17.3148 4.03425 17.6119 4.32867 17.7394C5.03395 18.045 5.84736 18.0748 6.50342 18.0199C7.15632 17.9651 7.70263 17.8218 7.89269 17.7394C8.05512 17.6691 8.16367 17.5324 8.23621 17.403C8.31115 17.2694 8.36677 17.11 8.40833 16.9437C8.41575 16.9139 8.42281 16.8837 8.4295 16.8529C8.56694 17.1463 8.77027 17.4329 9.05799 17.5576C9.76334 17.8632 10.5767 17.893 11.2327 17.838C11.8856 17.7833 12.432 17.64 12.622 17.5576C12.7844 17.4872 12.893 17.3505 12.9655 17.2212C13.0405 17.0876 13.0961 16.9282 13.1377 16.7618C13.1403 16.7509 13.143 16.74 13.1457 16.729C13.1919 16.8742 13.2473 17.0112 13.3131 17.1283C13.3793 17.2461 13.4695 17.3684 13.594 17.4478C14.1109 17.777 14.705 17.8068 15.1723 17.7492C15.633 17.6924 16.0271 17.5434 16.1772 17.4478C16.3157 17.3595 16.3898 17.2071 16.4331 17.0938C16.4606 17.0216 16.4842 16.9413 16.5045 16.856C16.5383 16.9534 16.5767 17.0451 16.62 17.127C16.6807 17.2419 16.7649 17.3643 16.884 17.4451C17.3702 17.7745 17.9297 17.804 18.3678 17.7465C18.5894 17.7175 18.7889 17.6653 18.9472 17.611C19.099 17.5591 19.2319 17.4988 19.3113 17.4451C19.4441 17.355 19.5127 17.2026 19.5518 17.0936C19.5866 16.9966 19.6146 16.8846 19.6372 16.7653L19.6459 16.7884C19.6878 16.8972 19.749 17.0258 19.8444 17.115C20.1678 17.4173 20.5301 17.4644 20.8259 17.4089C21.1049 17.3564 21.3291 17.2136 21.4346 17.115C21.4761 17.0761 21.5073 17.0305 21.5303 16.9904C21.5534 17.0326 21.5818 17.0728 21.6169 17.108C21.7199 17.2109 21.8542 17.259 21.9616 17.2831C22.075 17.3087 22.196 17.3158 22.3076 17.3118C22.4196 17.3078 22.5332 17.2921 22.6337 17.2654C22.7041 17.2465 22.8 17.2143 22.882 17.1547C22.8789 17.1688 22.8757 17.183 22.8724 17.1975C22.8261 17.3981 22.7818 17.5986 22.7379 17.7972C22.3274 19.6555 21.9543 21.3447 20.3333 21.3447H1.79369C1.19564 21.3447 -0.793971 16.6964 1.19566 16.2985Z" fill="#555555"/>
</svg>
