<svg width="24" height="24" viewBox="0 0 24 24" fill="none" xmlns="http://www.w3.org/2000/svg">
<path d="M1.07391 0.709961V3.29699C2.48156 4.27434 4.64484 5.63887 6.54844 6.95605C7.5375 7.64043 8.45625 8.31074 9.15937 8.91543C9.86719 9.51543 10.3828 9.99356 10.5422 10.5889L10.5562 10.6357V10.6826C10.575 11.3951 10.7297 11.8639 10.9266 12.1451C11.1234 12.4264 11.3531 12.5482 11.6578 12.5904C12.2625 12.6795 13.1672 12.3092 13.875 11.6904C14.5781 11.0717 15.0469 10.242 15.0094 9.61856C14.9906 9.30918 14.8734 9.0373 14.5687 8.77012C14.2687 8.50293 13.7578 8.2498 12.9797 8.08574C12.4172 7.96855 11.6766 7.55137 10.6688 6.94668C9.66094 6.34668 8.44219 5.56387 7.17656 4.73418C4.95469 3.2698 2.63719 1.69715 1.07391 0.709961ZM8.99531 0.843555C9.82031 1.3784 11.25 2.34309 12.7406 3.52621C15.0328 5.34355 17.4094 7.70605 17.8453 9.47793V9.48262C17.9578 9.95137 18.0094 11.2076 17.9766 12.7264C17.9438 14.2404 17.85 16.0498 17.7328 17.7889C17.5922 19.9076 17.4234 21.9092 17.3156 23.1561H18.1641C18.2719 21.8998 18.4359 19.9311 18.5766 17.8451C18.6891 16.1014 18.7875 14.2826 18.8203 12.7404C18.8531 11.2029 18.8391 9.98418 18.6609 9.28106V9.27637C18.1078 7.03105 15.6047 4.72012 13.2656 2.8648C12.2719 2.07684 11.3016 1.38309 10.5141 0.843555H8.99531ZM0.84375 6.68887V7.83731C3.13828 9.92793 6.39844 12.6045 8.52656 14.1326C8.02969 16.8889 8.12344 20.3529 8.19844 23.1561H9.04219C8.9625 20.2545 8.87813 16.6732 9.39844 14.0295L9.45469 13.7576L9.22969 13.5982C6.98906 12.0186 3.16828 8.85918 0.84375 6.68887ZM15.7172 8.23574L16.0922 11.967C16.4906 11.7373 16.7391 11.4607 16.8891 11.1701C17.0906 10.767 17.1141 10.3076 17.0016 9.84824C16.8188 9.14512 16.2891 8.50762 15.7172 8.23574ZM14.85 12.3373C14.7281 12.417 14.5312 12.6092 14.2313 12.8154C13.6781 13.1998 12.7594 13.5561 11.1328 13.4623C11.0953 13.842 11.2547 14.1748 11.6109 14.517C12.0516 14.9482 12.8016 15.3232 13.6828 15.5201L13.8234 15.5529L13.9172 15.6654C14.1281 15.9279 14.1844 16.2092 14.2687 16.6076C14.3531 17.0061 14.4281 17.5029 14.4938 18.0654C14.625 19.1951 14.7234 20.5967 14.7938 21.9654C14.8125 22.3686 14.8313 22.767 14.8453 23.1561H16.2047C16.1484 20.6576 16.1766 17.8498 16.4484 14.8873C16.4531 14.3107 16.425 13.7482 16.2422 13.3076C16.0594 12.867 15.7547 12.5389 15.0703 12.2998C14.9812 12.267 14.9062 12.2998 14.85 12.3373ZM11.2594 15.3326C11.2594 15.4826 11.2641 15.6326 11.2734 15.7826C11.3062 16.4201 11.4281 16.9873 11.6109 17.2264L11.7 17.3436L11.6812 23.1561H12.5156L12.6141 17.1889L12.7219 17.0717C12.9891 16.7811 13.1062 16.5326 13.1906 16.2607C12.4453 16.0592 11.775 15.7498 11.2594 15.3326Z" fill="#555555"/>
</svg>
