<svg width="24" height="24" viewBox="0 0 24 24" fill="none" xmlns="http://www.w3.org/2000/svg">
<path d="M13.5272 5.69321C14.3721 6.38277 15.1812 7.11506 15.9512 7.88722C16.7231 8.65733 17.455 9.46638 18.1442 10.3112C18.6712 9.51715 19.1324 8.68137 19.5232 7.81221C19.9772 6.77921 20.2042 5.89822 20.2332 5.21422C20.2622 4.53222 20.0932 4.15522 19.8872 3.95022C19.6812 3.74522 19.3052 3.57622 18.6232 3.60522C17.9402 3.63322 17.0592 3.86022 16.0252 4.31522C15.1567 4.70619 14.3213 5.16704 13.5272 5.69321ZM11.8392 4.42022C13.0022 3.61022 14.1452 2.95721 15.2192 2.48421C16.3872 1.97121 17.5212 1.64921 18.5392 1.60621C19.5592 1.56421 20.5672 1.80121 21.3022 2.53622C22.0372 3.27121 22.2742 4.27921 22.2322 5.29821C22.1882 6.31622 21.8672 7.45121 21.3532 8.61822C20.8812 9.69221 20.2272 10.8352 19.4182 11.9982C20.2282 13.1622 20.8812 14.3052 21.3542 15.3802C21.8672 16.5472 22.1892 17.6822 22.2322 18.7002C22.2742 19.7182 22.0372 20.7272 21.3022 21.4622C20.5672 22.1972 19.5592 22.4342 18.5402 22.3922C17.5222 22.3492 16.3872 22.0272 15.2202 21.5132C14.1462 21.0412 13.0022 20.3872 11.8392 19.5772C10.6762 20.3872 9.53225 21.0412 8.45825 21.5132C7.29125 22.0272 6.15625 22.3482 5.13825 22.3912C4.11925 22.4342 3.11025 22.1972 2.37625 21.4612C1.64125 20.7272 1.40325 19.7182 1.44625 18.6992C1.48925 17.6822 1.81125 16.5472 2.32425 15.3792C2.79725 14.3052 3.45125 13.1622 4.26025 11.9992C3.45125 10.8352 2.79725 9.69221 2.32525 8.61822C1.81125 7.45121 1.49025 6.31622 1.44725 5.29821C1.40425 4.27921 1.64125 3.27121 2.37725 2.53622C3.11125 1.80121 4.12025 1.56421 5.13925 1.60621C6.15625 1.64921 7.29125 1.97121 8.45925 2.48421C9.53225 2.95721 10.6762 3.61122 11.8392 4.42022ZM5.53425 10.3102C6.22318 9.46575 6.9548 8.65703 7.72625 7.88722C8.49666 7.11503 9.30605 6.38274 10.1512 5.69321C9.35747 5.16666 8.52203 4.7058 7.65325 4.31522C6.61925 3.86022 5.73825 3.63322 5.05525 3.60522C4.37325 3.57622 3.99525 3.74522 3.79025 3.95022C3.58525 4.15522 3.41625 4.53222 3.44525 5.21422C3.47425 5.89822 3.70125 6.77921 4.15525 7.81221C4.5461 8.68137 5.0073 9.51615 5.53425 10.3102ZM6.74625 11.9992C7.4897 12.9461 8.28948 13.8474 9.14125 14.6982C9.99172 15.5499 10.8927 16.3497 11.8392 17.0932C12.7858 16.3497 13.6868 15.5499 14.5372 14.6982C15.389 13.8474 16.1888 12.9461 16.9322 11.9992C16.1887 11.053 15.389 10.1524 14.5372 9.30222C13.6868 8.45014 12.7858 7.65002 11.8392 6.90622C10.8923 7.64967 9.99104 8.44945 9.14025 9.30121C8.28855 10.1514 7.48877 11.052 6.74525 11.9982M5.53325 13.6862C5.00591 14.4806 4.54438 15.3167 4.15325 16.1862C3.69925 17.2192 3.47325 18.1002 3.44325 18.7832C3.41525 19.4652 3.58325 19.8432 3.78925 20.0482C3.99525 20.2532 4.37125 20.4222 5.05325 20.3932C5.73625 20.3642 6.61825 20.1372 7.65125 19.6832C8.52078 19.2921 9.3569 18.8306 10.1512 18.3032C9.3061 17.6143 8.49671 16.8827 7.72625 16.1112C6.9544 15.3408 6.22245 14.5314 5.53325 13.6862ZM13.5262 18.3042C14.3203 18.8312 15.1561 19.2924 16.0252 19.6832C17.0582 20.1372 17.9402 20.3642 18.6232 20.3932C19.3062 20.4222 19.6822 20.2532 19.8872 20.0482C20.0922 19.8422 20.2612 19.4652 20.2322 18.7832C20.2042 18.1002 19.9772 17.2192 19.5222 16.1852C19.1314 15.3161 18.6702 14.4803 18.1432 13.6862C17.454 14.5314 16.7221 15.3408 15.9502 16.1112C15.1801 16.883 14.3711 17.615 13.5262 18.3042ZM11.0002 11.0002H13.0042V13.0042H11.0002V11.0002Z" fill="#555555"/>
</svg>
