<svg width="24" height="24" viewBox="0 0 24 24" fill="none" xmlns="http://www.w3.org/2000/svg">
<g clip-path="url(#clip0_137_1273)">
<path d="M11.0879 4.51183L11.3759 4.65583C11.5679 4.17583 12.4799 4.31983 12.4799 4.70383C12.4799 4.94383 12.3359 5.23183 12.2879 5.47183C12.2399 5.75983 12.1919 6.04783 12.2399 6.33583C12.1919 6.04783 12.2879 5.75983 12.3839 5.51983C12.4799 5.23183 12.6239 5.03983 12.6239 4.70383C12.6719 4.17583 11.4719 3.79183 11.0879 4.51183Z" fill="#555555"/>
<path d="M16.9612 13.4272C16.8592 13.1087 16.8592 12.7902 16.9102 12.4717C17.9296 7.16306 16.1456 3.97789 16.1456 3.97789C13.4951 -1.70232 7.12379 0.368037 7.12379 0.368037C7.12379 0.368037 6.10437 0.261865 5.33981 1.16433C4.57524 2.06679 5.33981 25 5.33981 25H8.95874C9.92718 21.4432 10.3859 21.284 10.7937 18.7358C10.8447 18.6828 10.8447 16.6655 10.6917 16.0284C10.9466 16.6124 11.0995 18.2581 11.2015 18.8951C12.2718 22.8235 12.2209 24.363 12.1189 25H13.4442C13.3422 24.7346 13.2913 24.363 13.5461 24.0445C15.2282 21.8148 13.6481 18.8951 13.2403 13.0556L13.4442 13.0025C13.4442 13.0025 13.5971 13.0025 13.801 13.0025C14.0049 13.0025 14.5655 13.1087 14.6675 13.0556C14.7694 13.5865 14.6675 17.1963 15.0752 18.0457C15.0752 18.0457 15.8908 21.4963 17.0121 23.4074C17.0121 23.4074 17.5218 24.0975 17.4709 25H19C17.267 21.4963 18.5922 19.6914 16.9612 13.4272ZM9.3665 5.67665C8.75485 6.10134 8.1432 8.11861 8.09223 8.75564C8.09223 8.75564 7.83738 9.71119 7.12379 10.2951V3.50012C8.04126 3.34086 7.93932 3.02234 8.5 2.86309C8.95874 2.75691 9.3665 3.12852 9.3665 3.60629C9.3665 4.03098 9.36651 4.61493 9.57039 4.98653C9.7233 5.25196 9.62136 5.46431 9.3665 5.67665ZM9.41748 2.54457C9.67233 2.22605 9.97816 1.74828 9.97816 1.48285C10.0291 1.11124 11.5583 0.898898 11.915 1.05816C12.2718 1.21742 12.2718 2.17297 11.5073 2.59765C11.5073 2.59765 10.6408 2.86308 9.87621 3.23469C9.82524 2.91617 9.51942 2.59765 9.41748 2.54457ZM14.2087 12.5248C13.8519 12.4717 13.3932 12.5248 13.3932 12.5248L12.6286 8.75564C12.3738 5.57048 10.9976 6.31368 10.4369 5.25196C9.77427 3.97789 10.5388 2.59765 12.4248 2.86309C13.0874 3.07543 13.3422 2.96926 13.3422 2.96926C14.6675 2.96926 13.9029 6.68529 13.9029 6.68529C13.699 7.69392 14.9223 12.3655 14.9223 12.3655C14.7694 12.6309 14.5655 12.5778 14.2087 12.5248Z" fill="#555555"/>
</g>
<defs>
<clipPath id="clip0_137_1273">
<rect width="24" height="24" fill="white"/>
</clipPath>
</defs>
</svg>
