<svg width="24" height="25" viewBox="0 0 24 25" fill="none" xmlns="http://www.w3.org/2000/svg">
<path d="M4 5.50014H6V6.45414C5.99612 6.62652 6.04185 6.79638 6.13173 6.94352C6.22161 7.09067 6.35186 7.20889 6.507 7.28414C8.22934 8.07949 10.1029 8.49425 12 8.50014C13.897 8.49456 15.7706 8.08015 17.493 7.28514C17.6481 7.20989 17.7784 7.09167 17.8683 6.94452C17.9582 6.79738 18.0039 6.62752 18 6.45514V5.50014H20V3.50014H17.994C17.924 2.81814 17.178 2.37014 16.514 2.60514C15.36 3.01214 13.68 3.47514 12 3.47514C10.32 3.47514 8.64 3.01214 7.486 2.60514C6.822 2.37114 6.076 2.81814 6.006 3.50014H4V5.50014ZM4 12.5001H6V13.4541C5.99612 13.6265 6.04185 13.7964 6.13173 13.9435C6.22161 14.0907 6.35186 14.2089 6.507 14.2841C7.407 14.7091 9.435 15.5001 12 15.5001C14.565 15.5001 16.593 14.7081 17.493 14.2851C17.6481 14.2099 17.7784 14.0917 17.8683 13.9445C17.9582 13.7974 18.0039 13.6275 18 13.4551V12.5001H20V10.5001H17.994C17.924 9.81814 17.178 9.37014 16.514 9.60514C15.36 10.0121 13.68 10.4751 12 10.4751C10.32 10.4751 8.64 10.0121 7.486 9.60514C6.822 9.37114 6.076 9.81814 6.006 10.5001H4V12.5001ZM4 19.5001H6V20.4541C5.99612 20.6265 6.04185 20.7964 6.13173 20.9435C6.22161 21.0907 6.35186 21.2089 6.507 21.2841C7.407 21.7091 9.435 22.5001 12 22.5001C14.565 22.5001 16.593 21.7081 17.493 21.2851C17.6481 21.2099 17.7784 21.0917 17.8683 20.9445C17.9582 20.7974 18.0039 20.6275 18 20.4551V19.5001H20V17.5001H17.994C17.924 16.8181 17.178 16.3701 16.514 16.6051C15.36 17.0121 13.68 17.4751 12 17.4751C10.32 17.4751 8.64 17.0121 7.486 16.6051C6.822 16.3711 6.076 16.8181 6.006 17.5001H4V19.5001Z" fill="#555555"/>
</svg>