<svg width="24" height="24" viewBox="0 0 24 24" fill="none" xmlns="http://www.w3.org/2000/svg">
<path d="M15.72 7.34905C15.72 7.84236 15.524 8.31545 15.1752 8.66427C14.8264 9.01309 14.3533 9.20905 13.86 9.20905C13.3667 9.20905 12.8936 9.01309 12.5448 8.66427C12.196 8.31545 12 7.84236 12 7.34905C12 6.85575 12.196 6.38265 12.5448 6.03383C12.8936 5.68502 13.3667 5.48905 13.86 5.48905C14.3533 5.48905 14.8264 5.68502 15.1752 6.03383C15.524 6.38265 15.72 6.85575 15.72 7.34905ZM22 7.75405C22 7.38005 22 7.11205 21.963 6.87605C21.8977 6.46231 21.7471 6.06667 21.5208 5.71427C21.2944 5.36187 20.9972 5.06041 20.648 4.82905C20.57 4.77705 20.471 4.84505 20.484 4.93805C20.584 5.68205 20.601 6.56505 20.604 7.52805V16.4711C20.601 17.4351 20.584 18.3181 20.484 19.0621C20.471 19.1551 20.57 19.2221 20.648 19.1711C20.9972 18.9397 21.2944 18.6382 21.5208 18.2858C21.7471 17.9334 21.8977 17.5378 21.963 17.1241C22 16.8881 22 16.6201 22 16.2461V7.75405ZM3.395 7.81405L3.397 7.34905C3.401 6.45505 3.422 5.63505 3.517 4.93805C3.529 4.84505 3.43 4.77805 3.352 4.82905C3.00284 5.06041 2.70563 5.36187 2.47924 5.71427C2.25286 6.06667 2.10225 6.46231 2.037 6.87605C2 7.11205 2 7.38005 2 7.75405V16.2461C2 16.6201 2 16.8881 2.037 17.1241C2.10225 17.5378 2.25286 17.9334 2.47924 18.2858C2.70563 18.6382 3.00284 18.9397 3.352 19.1711C3.43 19.2231 3.529 19.1551 3.516 19.0621C3.422 18.3651 3.401 17.5451 3.396 16.6521V7.81305" fill="#555555"/>
<path fill-rule="evenodd" clip-rule="evenodd" d="M16.086 2.108C15.281 2 14.254 2 12.982 2H11.021C9.74897 2 8.72297 2 7.91697 2.108C7.07897 2.221 6.37397 2.462 5.81397 3.022C5.25397 3.582 5.01397 4.287 4.90097 5.124C4.79297 5.93 4.79297 6.956 4.79297 8.228V15.772C4.79297 17.044 4.79297 18.07 4.90097 18.876C5.01397 19.713 5.25497 20.418 5.81397 20.978C6.37397 21.538 7.07897 21.779 7.91697 21.892C8.72097 22 9.74797 22 11.02 22H12.982C14.254 22 15.28 22 16.086 21.892C16.924 21.779 17.629 21.538 18.189 20.978C18.749 20.418 18.989 19.713 19.102 18.876C19.21 18.07 19.21 17.044 19.21 15.772V8.228C19.21 6.956 19.21 5.93 19.102 5.124C18.989 4.287 18.748 3.582 18.189 3.022C17.629 2.462 16.924 2.221 16.086 2.108ZM16.809 16.63L17.796 17.67C17.814 17.134 17.815 16.495 17.815 15.72V8.28C17.815 6.944 17.813 6.013 17.719 5.31C17.627 4.627 17.459 4.266 17.202 4.008C16.944 3.751 16.583 3.583 15.9 3.491C15.198 3.397 14.267 3.395 12.931 3.395H11.071C9.73597 3.395 8.80397 3.397 8.10097 3.491C7.41897 3.583 7.05797 3.751 6.80097 4.008C6.54297 4.266 6.37497 4.628 6.28297 5.31C6.18897 6.013 6.18697 6.944 6.18697 8.28V12.904L6.18997 12.901C7.10697 11.96 8.52597 12.025 9.37397 13.019L12.314 16.467C12.55 16.743 12.859 16.756 13.097 16.56L13.301 16.391C14.377 15.505 15.853 15.621 16.809 16.631" fill="#555555"/>
</svg>
