<svg width="500" height="114" viewBox="0 0 500 114" fill="none" xmlns="http://www.w3.org/2000/svg">
<g clip-path="url(#clip0_389_8571)">
<path d="M78.2174 5.50911C68.3297 3.39322 58.0563 2.33527 48.1881 0.0487366C49.8971 0.862918 51.7331 1.3797 53.7008 1.59909L76.5963 5.53837C75.2047 5.64562 73.8327 5.95764 72.5338 6.47443L41.2497 24.0451L10.5709 18.3703C8.4518 18.2386 6.16177 18.2874 4.0768 18.6969C13.7936 14.1482 23.4713 9.51664 33.11 4.80219C36.5915 3.14945 40.2291 1.49671 43.7741 0.46314L43.9303 0.0487366C42.9977 0.160869 41.4254 0.804414 40.5075 1.17494C27.8756 6.27942 15.4245 13.4218 2.84634 18.7895C2.35805 19.1454 1.23501 19.6915 1.44985 20.296C4.13052 18.3605 7.42153 18.7603 10.5416 18.7554L41.3229 24.4449L72.695 6.82545C74.6676 6.03077 76.8307 5.79188 78.9547 5.83089C78.984 5.53349 78.442 5.55787 78.2174 5.50911ZM87.0309 17.3611C85.4049 7.85903 77.6852 9.93104 71.279 13.3194C62.8805 17.7657 54.4577 23.2456 46.1862 28.0429C45.9079 28.2038 45.6149 28.3647 45.2829 28.3939V113.615C53.4225 108.749 61.8356 104.269 69.9166 99.3106C79.3991 93.4894 86.4987 85.6353 87.2848 74.0027C87.1041 55.1254 87.6071 36.2042 87.0309 17.3611ZM74.5114 79.0146C73.8278 88.1168 64.4381 91.1152 57.861 95.2982V32.0553C61.025 30.6366 63.9401 28.4134 67.0211 26.8192C70.317 25.108 73.9108 23.7624 74.5114 28.8669V79.0146Z" fill="#FEFEFE"/>
<path d="M41.4111 108.31C40.9375 112.264 38.4668 113.907 34.5703 113.59C25.6299 111.319 14.9121 111.094 6.19629 108.505C3.76465 107.784 1.7627 106.263 0.737305 103.913C0.439453 103.221 0.424805 102.46 0 101.856V80.0676L12.5781 82.1884L12.5879 98.7597L28.833 101.661V80.3553L13.2617 66.758C13.1494 65.9535 12.876 64.5251 13.5547 63.9742L28.7402 56.354L28.8232 38.4274L12.5781 35.5266V50.9521L0 48.8314V28.3939C0.898437 24.8301 2.96875 23.3236 6.6748 23.5771C15.5078 25.4785 24.9023 26.2878 33.6768 28.2916C38.0566 29.2861 40.8936 31.519 41.4209 36.1945C40.9668 43.5904 41.9971 51.6444 41.4209 58.9623C41.2402 61.2488 40.3076 63.004 38.3057 64.1497C35.5566 65.7195 32.1191 66.6653 29.4189 68.401C32.0801 70.7021 35.21 72.7449 37.8271 75.0607C39.9854 76.9669 41.2109 78.7123 41.4209 81.696C42.0264 90.3058 40.9521 99.6226 41.4111 108.31Z" fill="white"/>
<path d="M78.9547 5.83089C76.8307 5.79189 74.6676 6.03078 72.695 6.82546L41.3229 24.4449L10.5416 18.7554C7.42153 18.7603 4.13052 18.3605 1.44985 20.296C1.23501 19.6915 2.35805 19.1454 2.84634 18.7895C15.4245 13.4218 27.8756 6.27943 40.5075 1.17495C41.4254 0.804422 42.9977 0.160878 43.9303 0.0487448C45.2487 -0.107266 46.8307 0.165753 48.1881 0.0487448C58.0563 2.33528 68.3297 3.39323 78.2174 5.50912C78.442 5.55788 78.984 5.5335 78.9547 5.83089Z" fill="#BBBBBB"/>
<path d="M87.0313 17.3611C85.4053 7.85903 77.6855 9.93105 71.2793 13.3194C62.8809 17.7657 54.458 23.2456 46.1865 28.0429C45.9082 28.2038 45.6152 28.3647 45.2832 28.3939V113.615C53.4229 108.749 61.8359 104.269 69.917 99.3106C79.3994 93.4894 86.499 85.6353 87.2852 74.0027C87.1045 55.1254 87.6074 36.2042 87.0313 17.3611ZM74.5117 79.0146C73.8281 88.1168 64.4385 91.1152 57.8613 95.2982V32.0553C61.0254 30.6366 63.9404 28.4135 67.0215 26.8192C70.3174 25.108 73.9111 23.7624 74.5117 28.8669V79.0146Z" fill="#0099C7"/>
<path d="M145.225 39.9826C143.887 38.8369 141.729 38.2616 138.745 38.2616H106.626V75.7579H115.22V61.1416H138.745C141.729 61.1416 143.887 60.5712 145.225 59.4206C146.563 58.2749 147.236 56.4369 147.236 53.9066V45.5356C147.236 42.981 146.563 41.1283 145.225 39.9826ZM138.813 51.7078C138.813 52.8194 138.535 53.5946 137.979 54.0334C137.422 54.4673 136.387 54.6866 134.868 54.6866H115.22V44.7556H134.868C136.387 44.7556 137.422 44.975 137.979 45.4089C138.535 45.8477 138.813 46.6131 138.813 47.7003V51.7078Z" fill="white"/>
<path d="M187.915 61.6048H192.817C195.801 61.6048 197.964 61.0246 199.302 59.8643C200.64 58.7088 201.309 56.8659 201.309 54.3308V45.5356C201.309 42.981 200.64 41.1283 199.302 39.9826C197.964 38.8369 195.801 38.2616 192.817 38.2616H160.698V75.7579H169.297V61.6048H177.573L192.71 75.7579H205.254L187.915 61.6048ZM169.297 55.1839V44.7556H188.945C190.459 44.7556 191.499 44.975 192.056 45.4089C192.612 45.8477 192.891 46.6131 192.891 47.7003V52.2051C192.891 53.3167 192.612 54.0919 192.056 54.5258C191.499 54.9645 190.459 55.1839 188.945 55.1839H169.297Z" fill="white"/>
<path d="M238.936 38.2616H230.513L209.268 75.7579H217.974L222.344 67.5624H246.147L250.659 75.7579H260.464L238.936 38.2616ZM226.074 60.7906L234.424 45.5356L242.524 60.7906H226.074Z" fill="white"/>
<path d="M311.519 50.6791V47.1299C311.519 43.7269 310.874 41.3965 309.585 40.1435C308.291 38.8906 305.835 38.2616 302.212 38.2616H279.79C276.143 38.2616 273.682 38.8906 272.402 40.1435C271.123 41.3965 270.483 43.7269 270.483 47.1299V66.8896C270.483 70.3219 271.123 72.6571 272.402 73.8955C273.682 75.1387 276.143 75.7579 279.79 75.7579H302.212C305.835 75.7579 308.291 75.1387 309.585 73.8955C310.874 72.6571 311.519 70.3219 311.519 66.8896V62.4579L302.778 60.6492V68.6984H279.224V44.9652H302.778V52.0637L311.519 50.6791Z" fill="white"/>
<path d="M321.04 38.2616V44.9652H338.272V75.7579H347.012V44.9652H364.316V38.2616H321.04Z" fill="white"/>
<path d="M375.01 38.2616V75.7579H383.75V38.2616H375.01Z" fill="white"/>
<path d="M443.188 50.6791V47.1299C443.188 43.7269 442.544 41.3965 441.255 40.1435C439.961 38.8906 437.505 38.2616 433.882 38.2616H411.46C407.817 38.2616 405.352 38.8906 404.072 40.1435C402.793 41.3965 402.153 43.7269 402.153 47.1299V66.8896C402.153 70.3219 402.793 72.6571 404.072 73.8955C405.352 75.1387 407.817 75.7579 411.46 75.7579H433.882C437.505 75.7579 439.961 75.1387 441.255 73.8955C442.544 72.6571 443.188 70.3219 443.188 66.8896V62.4579L434.448 60.6492V68.6984H410.894V44.9652H434.448V52.0637L443.188 50.6791Z" fill="white"/>
<path d="M469.941 68.6984V59.406H487.28V53.0193H469.941V44.6483H499.644V38.2616H461.206V75.7579H500V68.6984H469.941Z" fill="white"/>
</g>
<defs>
<clipPath id="clip0_389_8571">
<rect width="500" height="114" fill="white"/>
</clipPath>
</defs>
</svg>
