<svg width="212" height="50" viewBox="0 0 212 50" fill="none" xmlns="http://www.w3.org/2000/svg">
<g clip-path="url(#clip0_389_8932)">
<path d="M33.74 3.30659C29.5806 2.41515 25.259 1.96943 21.1078 1.0061C21.8267 1.34912 22.599 1.56685 23.4268 1.65928L33.058 3.31891C32.4726 3.3641 31.8955 3.49556 31.3491 3.71328L18.1891 11.1159L5.28378 8.72505C4.39235 8.66959 3.42902 8.69013 2.55196 8.86267C6.63943 6.94628 10.7105 4.99498 14.7651 3.00876C16.2296 2.31245 17.7598 1.61614 19.251 1.18069L19.3167 1.0061C18.9244 1.05335 18.263 1.32447 17.8769 1.48058C12.5632 3.63112 7.32546 6.64024 2.03435 8.9017C1.82895 9.05164 1.35653 9.28169 1.4469 9.53638C2.57455 8.72094 3.95895 8.88937 5.27146 8.88732L18.2199 11.2843L31.4169 3.86117C32.2467 3.52637 33.1566 3.42572 34.0501 3.44215C34.0624 3.31686 33.8344 3.32713 33.74 3.30659ZM37.4474 8.29987C36.7635 4.29662 33.5161 5.16957 30.8212 6.5971C27.2883 8.47035 23.7452 10.7791 20.2657 12.8002C20.1486 12.868 20.0254 12.9358 19.8857 12.9481V48.8521C23.3097 46.8022 26.8488 44.9145 30.2481 42.8256C34.237 40.3731 37.2235 37.0641 37.5542 32.1633C37.4782 24.2102 37.6898 16.2386 37.4474 8.29987ZM32.181 34.2748C31.8934 38.1096 27.9436 39.3728 25.1768 41.1352V14.4906C26.5078 13.8929 27.734 12.9563 29.0301 12.2846C30.4166 11.5637 31.9283 10.9968 32.181 13.1473V34.2748Z" fill="#FEFEFE"/>
<path d="M18.2559 46.6176C18.0567 48.2833 17.0174 48.9755 15.3783 48.842C11.6174 47.8849 7.10886 47.7904 3.44247 46.6997C2.41957 46.3957 1.57743 45.7549 1.14609 44.7648C1.0208 44.4732 1.01464 44.1527 0.835938 43.898V34.7187L6.12705 35.6122L6.13116 42.5938L12.9648 43.8159V34.8399L6.41461 29.1113C6.36737 28.7724 6.25235 28.1705 6.53785 27.9384L12.9258 24.728L12.9607 17.1755L6.12705 15.9533V22.4522L0.835938 21.5587V12.9483C1.21387 11.4468 2.08477 10.8122 3.64376 10.919C7.35945 11.72 11.3114 12.061 15.0024 12.9052C16.8448 13.3242 18.0382 14.2649 18.2601 16.2347C18.069 19.3506 18.5024 22.7439 18.2601 25.8269C18.1841 26.7903 17.7917 27.5297 16.9496 28.0124C15.7932 28.6738 14.3472 29.0723 13.2113 29.8035C14.3307 30.773 15.6474 31.6336 16.7483 32.6092C17.6562 33.4124 18.1717 34.1477 18.2601 35.4047C18.5147 39.0321 18.0629 42.9573 18.2559 46.6176Z" fill="white"/>
<path d="M34.0501 3.44227C33.1566 3.42584 32.2467 3.52649 31.4169 3.86129L18.2199 11.2845L5.27146 8.88744C3.95895 8.88949 2.57455 8.72106 1.4469 9.5365C1.35653 9.28181 1.82895 9.05176 2.03435 8.90181C7.32546 6.64036 12.5632 3.63124 17.8769 1.4807C18.263 1.32459 18.9244 1.05346 19.3167 1.00622C19.8713 0.940494 20.5368 1.05552 21.1078 1.00622C25.259 1.96955 29.5806 2.41527 33.74 3.30671C33.8344 3.32725 34.0624 3.31698 34.0501 3.44227Z" fill="#BBBBBB"/>
<path d="M37.4465 8.29997C36.7625 4.29672 33.5151 5.16967 30.8203 6.5972C27.2874 8.47045 23.7442 10.7792 20.2648 12.8003C20.1477 12.8681 20.0244 12.9359 19.8848 12.9482V48.8522C23.3088 46.8023 26.8478 44.9146 30.2472 42.8257C34.2361 40.3732 37.2226 37.0642 37.5533 32.1634C37.4773 24.2103 37.6889 16.2387 37.4465 8.29997ZM32.18 34.2749C31.8925 38.1097 27.9426 39.3729 25.1759 41.1353V14.4907C26.5069 13.893 27.7331 12.9564 29.0292 12.2847C30.4156 11.5638 31.9274 10.9969 32.18 13.1474V34.2749Z" fill="#0099C7"/>
<path d="M61.9264 17.8305C61.3636 17.3478 60.4557 17.1055 59.2007 17.1055H45.6895V32.9028H49.3045V26.7449H59.2007C60.4557 26.7449 61.3636 26.5046 61.9264 26.0198C62.4892 25.5372 62.7726 24.7628 62.7726 23.6968V20.17C62.7726 19.0937 62.4892 18.3132 61.9264 17.8305ZM59.2294 22.7704C59.2294 23.2387 59.1124 23.5653 58.8782 23.7502C58.6441 23.933 58.2086 24.0254 57.5698 24.0254H49.3045V19.8414H57.5698C58.2086 19.8414 58.6441 19.9338 58.8782 20.1166C59.1124 20.3015 59.2294 20.624 59.2294 21.082V22.7704Z" fill="white"/>
<path d="M79.8846 26.94H81.9468C83.2018 26.94 84.1117 26.6956 84.6745 26.2068C85.2373 25.72 85.5187 24.9435 85.5187 23.8755V20.17C85.5187 19.0937 85.2373 18.3132 84.6745 17.8305C84.1117 17.3478 83.2018 17.1055 81.9468 17.1055H68.4355V32.9028H72.0527V26.94H75.5342L81.9016 32.9028H87.1783L79.8846 26.94ZM72.0527 24.2349V19.8414H80.318C80.9547 19.8414 81.3922 19.9338 81.6264 20.1166C81.8605 20.3015 81.9776 20.624 81.9776 21.082V22.9799C81.9776 23.4482 81.8605 23.7748 81.6264 23.9576C81.3922 24.1425 80.9547 24.2349 80.318 24.2349H72.0527Z" fill="white"/>
<path d="M101.347 17.1055H97.8042L88.8672 32.9028H92.5295L94.3678 29.45H104.381L106.279 32.9028H110.403L101.347 17.1055ZM95.9371 26.597L99.4494 20.17L102.857 26.597H95.9371Z" fill="white"/>
<path d="M131.879 22.337V20.8417C131.879 19.408 131.608 18.4262 131.066 17.8983C130.521 17.3704 129.488 17.1055 127.964 17.1055H118.532C116.998 17.1055 115.963 17.3704 115.424 17.8983C114.886 18.4262 114.617 19.408 114.617 20.8417V29.1666C114.617 30.6126 114.886 31.5965 115.424 32.1182C115.963 32.642 116.998 32.9028 118.532 32.9028H127.964C129.488 32.9028 130.521 32.642 131.066 32.1182C131.608 31.5965 131.879 30.6126 131.879 29.1666V27.2995L128.202 26.5375V29.9286H118.294V19.9297H128.202V22.9204L131.879 22.337Z" fill="white"/>
<path d="M135.885 17.1055V19.9297H143.133V32.9028H146.81V19.9297H154.089V17.1055H135.885Z" fill="white"/>
<path d="M158.588 17.1055V32.9028H162.265V17.1055H158.588Z" fill="white"/>
<path d="M187.268 22.337V20.8417C187.268 19.408 186.997 18.4262 186.454 17.8983C185.91 17.3704 184.877 17.1055 183.353 17.1055H173.921C172.389 17.1055 171.351 17.3704 170.813 17.8983C170.275 18.4262 170.006 19.408 170.006 20.8417V29.1666C170.006 30.6126 170.275 31.5965 170.813 32.1182C171.351 32.642 172.389 32.9028 173.921 32.9028H183.353C184.877 32.9028 185.91 32.642 186.454 32.1182C186.997 31.5965 187.268 30.6126 187.268 29.1666V27.2995L183.591 26.5375V29.9286H173.683V19.9297H183.591V22.9204L187.268 22.337Z" fill="white"/>
<path d="M198.522 29.9286V26.0137H205.816V23.3229H198.522V19.7962H211.017V17.1055H194.848V32.9028H211.167V29.9286H198.522Z" fill="white"/>
</g>
<defs>
<clipPath id="clip0_389_8932">
<rect width="210.33" height="48.0288" fill="white" transform="translate(0.835938 0.985596)"/>
</clipPath>
</defs>
</svg>
