<svg width="32" height="32" viewBox="0 0 32 32" fill="none" xmlns="http://www.w3.org/2000/svg">
<path d="M16 27.2015C16.3919 27.2016 16.7702 27.3454 17.0631 27.6059C17.356 27.8663 17.5431 28.2252 17.589 28.6144L17.6002 28.8016V30.4017C17.5997 30.8095 17.4436 31.2018 17.1636 31.4983C16.8836 31.7949 16.5009 31.9733 16.0938 31.9972C15.6866 32.0211 15.2857 31.8887 14.973 31.6269C14.6602 31.3652 14.4592 30.9939 14.411 30.5889L14.3998 30.4017V28.8016C14.3998 28.3772 14.5684 27.9702 14.8685 27.6702C15.1686 27.3701 15.5756 27.2015 16 27.2015ZM26.1019 23.8573L26.2523 23.9901L27.3725 25.1102C27.6594 25.3981 27.8261 25.7845 27.8385 26.1909C27.8509 26.5972 27.7082 26.993 27.4393 27.298C27.1704 27.6029 26.7955 27.794 26.3908 27.8326C25.9861 27.8711 25.5818 27.7542 25.2602 27.5055L25.1098 27.3727L23.9897 26.2527C23.7136 25.977 23.5476 25.61 23.5232 25.2206C23.4987 24.8312 23.6173 24.4463 23.8568 24.1383C24.0962 23.8302 24.44 23.6203 24.8234 23.5479C25.2068 23.4755 25.6034 23.5457 25.9387 23.7453L26.1019 23.8573ZM8.01031 23.9901C8.28583 24.2657 8.45134 24.6322 8.47579 25.0211C8.50024 25.41 8.38196 25.7944 8.14313 26.1022L8.01031 26.2527L6.89019 27.3727C6.60223 27.6597 6.21582 27.8263 5.80946 27.8387C5.40309 27.8511 5.00724 27.7084 4.7023 27.4395C4.39736 27.1707 4.20621 26.7958 4.16765 26.3911C4.1291 25.9864 4.24604 25.5822 4.49473 25.2606L4.62754 25.1102L5.74766 23.9901C6.04774 23.6902 6.45468 23.5216 6.87899 23.5216C7.3033 23.5216 7.71024 23.6902 8.01031 23.9901ZM3.19858 14.4008C3.60643 14.4013 3.99872 14.5574 4.29529 14.8374C4.59186 15.1173 4.77033 15.5 4.79423 15.9071C4.81814 16.3142 4.68567 16.7151 4.42389 17.0279C4.16212 17.3406 3.7908 17.5416 3.3858 17.5898L3.19858 17.601H1.5984C1.19055 17.6005 0.798264 17.4444 0.501694 17.1644C0.205123 16.8844 0.0266544 16.5018 0.00275236 16.0947C-0.0211497 15.6875 0.111319 15.2866 0.373093 14.9739C0.634866 14.6612 1.00619 14.4602 1.41118 14.412L1.5984 14.4008H3.19858ZM30.4016 14.4008C30.8094 14.4013 31.2017 14.5574 31.4983 14.8374C31.7949 15.1173 31.9733 15.5 31.9972 15.9071C32.0211 16.3142 31.8887 16.7151 31.6269 17.0279C31.3651 17.3406 30.9938 17.5416 30.5888 17.5898L30.4016 17.601H28.8014C28.3936 17.6005 28.0013 17.4444 27.7047 17.1644C27.4081 16.8844 27.2297 16.5018 27.2058 16.0947C27.1819 15.6875 27.3143 15.2866 27.5761 14.9739C27.8379 14.6612 28.2092 14.4602 28.6142 14.412L28.8014 14.4008H30.4016ZM6.73977 4.49625L6.89019 4.62906L8.01031 5.74912C8.2973 6.03707 8.46392 6.42345 8.47633 6.82979C8.48874 7.23613 8.34601 7.63196 8.07712 7.93689C7.80824 8.24181 7.43337 8.43296 7.02865 8.47151C6.62393 8.51006 6.2197 8.39312 5.89808 8.14445L5.74766 8.01164L4.62754 6.89158C4.35245 6.61585 4.18738 6.24926 4.16327 5.86054C4.13917 5.47181 4.25768 5.08763 4.49659 4.78003C4.7355 4.47243 5.0784 4.26252 5.46102 4.18966C5.84364 4.1168 6.2397 4.18598 6.57496 4.38424L6.73977 4.49625ZM27.3725 4.62906C27.648 4.90458 27.8135 5.27116 27.8379 5.66002C27.8624 6.04889 27.7441 6.43331 27.5053 6.74117L27.3725 6.89158L26.2523 8.01164C25.9644 8.29862 25.578 8.46523 25.1716 8.47764C24.7652 8.49004 24.3694 8.34732 24.0644 8.07845C23.7595 7.80958 23.5683 7.43473 23.5298 7.03003C23.4912 6.62533 23.6082 6.22113 23.8569 5.89953L23.9897 5.74912L25.1098 4.62906C25.4099 4.32909 25.8168 4.16057 26.2411 4.16057C26.6654 4.16057 27.0724 4.32909 27.3725 4.62906ZM16 0C16.3919 5.16998e-05 16.7702 0.143938 17.0631 0.404367C17.356 0.664796 17.5431 1.02365 17.589 1.41288L17.6002 1.60009V3.20018C17.5997 3.60801 17.4436 4.00027 17.1636 4.29683C16.8836 4.59338 16.5009 4.77184 16.0938 4.79574C15.6866 4.81964 15.2857 4.68718 14.973 4.42542C14.6602 4.16366 14.4592 3.79236 14.411 3.38739L14.3998 3.20018V1.60009C14.3998 1.17572 14.5684 0.76873 14.8685 0.468655C15.1686 0.16858 15.5756 0 16 0ZM16 8.00044C17.5677 8.00035 19.1008 8.46077 20.409 9.32452C21.7172 10.1883 22.7429 11.4173 23.3585 12.8589C23.9742 14.3005 24.1527 15.8912 23.872 17.4335C23.5913 18.9757 22.8637 20.4015 21.7796 21.5338C20.6954 22.666 19.3025 23.4549 17.7738 23.8023C16.2452 24.1498 14.6481 24.0405 13.181 23.4881C11.7139 22.9357 10.4414 21.9645 9.52162 20.6952C8.60179 19.4258 8.07515 17.9142 8.00712 16.3481L7.99911 16.0009L8.00712 15.6537C8.0966 13.594 8.97779 11.6483 10.4669 10.2224C11.9561 8.79655 13.9382 8.00056 16 8.00044Z" fill="#FFD900"/>
</svg>
