<svg width="28" height="28" viewBox="0 0 28 28" fill="none" xmlns="http://www.w3.org/2000/svg">
<path fill-rule="evenodd" clip-rule="evenodd" d="M9 2C9 1.46957 9.21071 0.960859 9.58579 0.585786C9.96086 0.210714 10.4696 0 11 0L17 0C17.5304 0 18.0391 0.210714 18.4142 0.585786C18.7893 0.960859 19 1.46957 19 2V3C19 3.53043 18.7893 4.03914 18.4142 4.41421C18.0391 4.78929 17.5304 5 17 5H11C10.4696 5 9.96086 4.78929 9.58579 4.41421C9.21071 4.03914 9 3.53043 9 3V2ZM21.5 2H22.5C23.2956 2 24.0587 2.31607 24.6213 2.87868C25.1839 3.44129 25.5 4.20435 25.5 5V25C25.5 25.7956 25.1839 26.5587 24.6213 27.1213C24.0587 27.6839 23.2956 28 22.5 28H5.5C4.70435 28 3.94129 27.6839 3.37868 27.1213C2.81607 26.5587 2.5 25.7956 2.5 25V5C2.5 4.20435 2.81607 3.44129 3.37868 2.87868C3.94129 2.31607 4.70435 2 5.5 2H6.5V3C6.5 4.19347 6.97411 5.33807 7.81802 6.18198C8.66193 7.02589 9.80653 7.5 11 7.5H17C18.1935 7.5 19.3381 7.02589 20.182 6.18198C21.0259 5.33807 21.5 4.19347 21.5 3V2ZM11.94 11.896C11.94 11.462 12.292 11.112 12.726 11.112H15.276C15.708 11.112 16.06 11.462 16.06 11.896V15.016H19.18C19.614 15.016 19.964 15.368 19.964 15.802V18.352C19.9645 18.4551 19.9446 18.5573 19.9054 18.6526C19.8662 18.748 19.8085 18.8346 19.7356 18.9076C19.6626 18.9805 19.576 19.0382 19.4806 19.0774C19.3853 19.1166 19.2831 19.1365 19.18 19.136H16.06V22.256C16.0608 22.3593 16.0411 22.4617 16.002 22.5573C15.9629 22.6529 15.9052 22.7397 15.8323 22.8129C15.7593 22.886 15.6726 22.9439 15.5771 22.9832C15.4816 23.0226 15.3793 23.0425 15.276 23.042H12.724C12.6207 23.0425 12.5184 23.0226 12.4229 22.9832C12.3274 22.9439 12.2407 22.886 12.1677 22.8129C12.0948 22.7397 12.0371 22.6529 11.998 22.5573C11.9589 22.4617 11.9392 22.3593 11.94 22.256V19.136H8.82C8.7169 19.1365 8.61471 19.1166 8.51935 19.0774C8.42399 19.0382 8.33735 18.9805 8.26445 18.9076C8.19154 18.8346 8.13381 18.748 8.0946 18.6526C8.05539 18.5573 8.03547 18.4551 8.036 18.352V15.8C8.036 15.366 8.386 15.014 8.82 15.014H11.94V11.896Z" fill="white"/>
</svg>
