<svg width="28" height="28" viewBox="0 0 28 28" fill="none" xmlns="http://www.w3.org/2000/svg">
<path d="M18.2475 7.16557C18.989 7.16557 19.7001 6.87102 20.2244 6.34673C20.7487 5.82244 21.0432 5.11135 21.0432 4.36989C21.0432 3.62843 20.7487 2.91734 20.2244 2.39305C19.7001 1.86876 18.989 1.57422 18.2475 1.57422C17.5061 1.57422 16.795 1.86876 16.2707 2.39305C15.7464 2.91734 15.4519 3.62843 15.4519 4.36989C15.4519 5.11135 15.7464 5.82244 16.2707 6.34673C16.795 6.87102 17.5061 7.16557 18.2475 7.16557ZM12.6313 9.82581C11.8566 10.0184 11.3279 10.3079 10.9011 10.667C10.2612 11.2062 9.74433 11.9841 9.04603 13.2067C8.8825 13.4928 8.612 13.7023 8.29405 13.789C7.97609 13.8756 7.63673 13.8325 7.35061 13.6689C7.06449 13.5054 6.85505 13.2349 6.76837 12.9169C6.68168 12.599 6.72486 12.2596 6.88839 11.9735C7.58358 10.7577 8.28623 9.62017 9.30075 8.76656C10.3594 7.87443 11.6553 7.36996 13.4029 7.17551C14.1335 7.09474 14.9374 7.1109 15.691 7.447C16.4819 7.8005 17.0597 8.43356 17.4536 9.27972C17.9841 10.4185 18.3786 11.0963 18.6942 11.4895C18.8464 11.6778 18.9527 11.7654 19.0129 11.8045C19.0608 11.8356 19.0813 11.8381 19.0887 11.8393C19.1428 11.8455 19.3186 11.8393 19.833 11.6113C20.0573 11.5119 20.302 11.3926 20.6015 11.2466L20.6729 11.2118C21.0392 11.0312 21.4087 10.8572 21.7813 10.69C22.0821 10.5579 22.423 10.5504 22.7293 10.669C23.0357 10.7876 23.2826 11.0227 23.4161 11.3229C23.5496 11.6231 23.5587 11.964 23.4415 12.2709C23.3243 12.5778 23.0904 12.8258 22.7908 12.9607C22.4455 13.1156 22.1031 13.277 21.7639 13.4447L21.6825 13.4844C21.3961 13.6242 21.1078 13.7652 20.8376 13.8845C20.2784 14.1318 19.564 14.4002 18.7893 14.3063C17.9717 14.2069 17.3417 13.7453 16.823 13.1259L15.1251 16.4019L17.4734 19.4572C17.6135 19.6396 17.7001 19.8572 17.7238 20.0859L18.2407 25.0535C18.2604 25.2172 18.2473 25.3832 18.2022 25.5417C18.1572 25.7003 18.081 25.8483 17.9781 25.9771C17.8753 26.106 17.7478 26.213 17.6032 26.2921C17.4586 26.3712 17.2996 26.4207 17.1357 26.4378C16.9717 26.4549 16.806 26.4391 16.6482 26.3915C16.4904 26.3439 16.3436 26.2654 16.2164 26.1605C16.0893 26.0556 15.9842 25.9264 15.9075 25.7805C15.8307 25.6347 15.7837 25.475 15.7693 25.3107L15.2885 20.6929L13.862 18.8366L13.8496 18.8596L13.7974 18.7527L11.162 15.3233C11.0325 15.1548 10.9484 14.9558 10.9177 14.7454C10.887 14.5351 10.9108 14.3204 10.9868 14.1218L12.6313 9.82581Z" fill="white"/>
<path d="M10.7502 17.1099L9.83573 19.5701L6.23241 19.2843C6.06859 19.2691 5.90337 19.2865 5.74635 19.3357C5.58934 19.3848 5.44364 19.4647 5.31773 19.5706C5.19182 19.6765 5.08819 19.8063 5.01286 19.9526C4.93754 20.0989 4.89201 20.2587 4.87893 20.4227C4.86585 20.5867 4.88547 20.7517 4.93666 20.908C4.98785 21.0644 5.06958 21.209 5.17711 21.3336C5.28465 21.4581 5.41584 21.56 5.56309 21.6334C5.71033 21.7069 5.87069 21.7503 6.03485 21.7612L10.575 22.1216C10.8445 22.143 11.1136 22.076 11.3415 21.9307C11.5694 21.7854 11.7438 21.5697 11.838 21.3164L12.537 19.4352L10.7502 17.1099Z" fill="white"/>
</svg>
