<svg width="28" height="28" viewBox="0 0 28 28" fill="none" xmlns="http://www.w3.org/2000/svg">
<path d="M18.3751 8.37503C18.3751 8.94957 18.2619 9.51848 18.042 10.0493C17.8222 10.5801 17.4999 11.0624 17.0936 11.4686C16.6874 11.8749 16.2051 12.1972 15.6743 12.417C15.1435 12.6369 14.5746 12.7501 14 12.7501C13.4255 12.7501 12.8566 12.6369 12.3258 12.417C11.795 12.1972 11.3127 11.8749 10.9064 11.4686C10.5002 11.0624 10.1779 10.5801 9.95803 10.0493C9.73816 9.51848 9.625 8.94957 9.625 8.37503C9.625 7.2147 10.0859 6.10189 10.9064 5.28142C11.7269 4.46094 12.8397 4 14 4C15.1604 4 16.2732 4.46094 17.0936 5.28142C17.9141 6.10189 18.3751 7.2147 18.3751 8.37503Z" fill="white"/>
<path opacity="0.4" d="M23.3751 8.37502C23.3751 9.20383 23.0459 9.99869 22.4598 10.5847C21.8738 11.1708 21.0789 11.5 20.2501 11.5C19.4213 11.5 18.6264 11.1708 18.0404 10.5847C17.4543 9.99869 17.1251 9.20383 17.1251 8.37502C17.1251 7.54621 17.4543 6.75135 18.0404 6.1653C18.6264 5.57924 19.4213 5.25 20.2501 5.25C21.0789 5.25 21.8738 5.57924 22.4598 6.1653C23.0459 6.75135 23.3751 7.54621 23.3751 8.37502ZM4.625 8.37502C4.625 9.20383 4.95424 9.99869 5.5403 10.5847C6.12635 11.1708 6.92121 11.5 7.75002 11.5C8.57883 11.5 9.37369 11.1708 9.95974 10.5847C10.5458 9.99869 10.875 9.20383 10.875 8.37502C10.875 7.54621 10.5458 6.75135 9.95974 6.1653C9.37369 5.57924 8.57883 5.25 7.75002 5.25C6.92121 5.25 6.12635 5.57924 5.5403 6.1653C4.95424 6.75135 4.625 7.54621 4.625 8.37502Z" fill="white"/>
<path d="M21.5001 19.625C21.5001 22.0413 18.1426 24.0001 14 24.0001C9.85752 24.0001 6.5 22.0413 6.5 19.625C6.5 17.2088 9.85752 15.25 14 15.25C18.1426 15.25 21.5001 17.2088 21.5001 19.625Z" fill="white"/>
<path opacity="0.4" d="M26.5002 19.625C26.5002 21.35 24.2626 22.75 21.5001 22.75C18.7376 22.75 16.5001 21.35 16.5001 19.625C16.5001 17.9 18.7376 16.5 21.5001 16.5C24.2626 16.5 26.5002 17.9 26.5002 19.625ZM1.5 19.625C1.5 21.35 3.73751 22.75 6.50003 22.75C9.26255 22.75 11.5001 21.35 11.5001 19.625C11.5001 17.9 9.26255 16.5 6.50003 16.5C3.73751 16.5 1.5 17.9 1.5 19.625Z" fill="white"/>
</svg>
